<svg xmlns="http://www.w3.org/2000/svg" width="280" height="280" fill="none"><path fill="#FA9247" d="M42.989 130.244 31.89 141.342v11.174l11.021 11.022h11.251l11.022-11.022v-11.174l-11.098-11.098zm5.549 29.225-12.556-12.556 12.556-12.557 12.556 12.557z"/><path fill="#263237" d="M279.999 136.404v-6.189h-8.891v-10.604l-8.233 2.109v8.495h-6.389v6.189h6.389v15.345q.001 6.19 3.029 9.288 3.028 3.093 8.957 3.094 1.251 0 2.567-.262 1.381-.198 2.502-.658v-6.52q-.857.329-1.778.527-.856.197-2.109.197-2.308-.001-3.622-1.382-1.316-1.384-1.317-4.807v-14.819h8.891zm-36.96-.462q2.108-.001 4.28.854a11.5 11.5 0 0 1 4.019 2.437l2.501-5.731q-1.974-1.91-5.138-2.898a19.7 19.7 0 0 0-6.389-1.055q-5.138 0-8.956 2.04-3.82 2.042-5.993 5.862-2.108 3.818-2.109 9.218 0 5.399 2.109 9.353 2.108 3.885 5.927 5.993 3.884 2.105 9.022 2.105a19.5 19.5 0 0 0 6.324-1.055c2.105-.701 3.843-1.69 5.203-2.963l-2.501-5.662a12.2 12.2 0 0 1-4.084 2.436q-2.176.79-4.215.789-4.412 0-6.916-2.832-2.437-2.832-2.436-8.102 0-5.267 2.436-8.036 2.504-2.767 6.916-2.768zm-30.654 13.044q0 3.884-2.24 6.258-2.174 2.372-5.666 2.371-3.094 0-4.611-1.713-1.516-1.778-1.516-5.466v-20.218h-8.233v20.284q.001 6.917 3.029 10.273 3.027 3.36 9.153 3.36 3.885 0 6.782-1.909c1.429-.953 2.589-2.186 3.491-3.688v4.938h8.036v-33.261h-8.233v18.771zm-29.484-19.43q-2.635.001-4.873 1.055c-1.49.702-2.767 1.778-3.818 3.225a12 12 0 0 0-1.189 2.189l-.589-5.814h-7.967q.26 2.042.331 4.214.13 2.174.131 4.28v24.764h8.298v-17.716q.001-2.701.923-4.808.989-2.104 2.899-3.294 1.975-1.185 4.807-1.186c.876 0 1.604.044 2.174.131q.922.133 2.175.659l.065-7.244a6 6 0 0 0-1.447-.331q-.725-.13-1.909-.131zm-32.283-9.945-8.233 2.109v8.495h-6.389v6.189h6.389v15.345q.001 6.19 3.029 9.288 3.027 3.093 8.957 3.094c.832 0 1.691-.087 2.567-.262q1.382-.198 2.502-.658v-6.52q-.857.329-1.778.527-.857.197-2.106.197-2.307-.001-3.622-1.382-1.318-1.384-1.316-4.807v-14.819h8.891v-6.189h-8.891zm-24.833 25.156-6.585-1.251q-2.041-.462-3.029-1.381-.921-.987-.92-2.437 0-1.91 1.582-3.094 1.582-1.25 5.003-1.251 2.503.001 5.139.923 2.632.921 4.676 2.568l2.371-5.335c-1.491-1.316-3.338-2.305-5.531-2.964q-3.23-.988-6.916-.989-4.217.001-7.375 1.382c-2.062.877-3.665 2.109-4.807 3.687q-1.648 2.373-1.648 5.466 0 3.62 2.175 5.862 2.237 2.24 6.455 3.16l6.585 1.251q2.236.462 3.229 1.381 1.054.856 1.055 2.371 0 1.91-1.648 3.029-1.583 1.12-4.872 1.12-3.095.002-6.124-.923a20.1 20.1 0 0 1-5.531-2.633l-2.305 5.531q2.436 1.844 5.992 2.898 3.624.988 7.902.989c2.851 0 5.269-.418 7.375-1.251 2.109-.832 3.752-2.04 4.938-3.621q1.778-2.373 1.778-5.666.001-3.686-2.305-5.796-2.237-2.172-6.651-3.029zm-35.789-15.211q-4.086 0-7.178 1.909c-1.67.997-3.004 2.357-4.011 4.07l-.531-5.32h-7.967q.26 2.041.396 4.149c.087 1.403.13 2.789.13 4.149v24.96h8.234v-18.771q-.001-3.95 2.24-6.324 2.237-2.372 6.058-2.371 3.094 0 4.61 1.778 1.582 1.712 1.582 5.731v19.957h8.233v-20.349q-.001-6.983-2.963-10.273-2.963-3.294-8.826-3.295zm-58.186.659h-9.944l-13.502 14.16h-.131V115H0v48.473h8.233v-14.884h.13l14.423 14.884h10.21l-16.385-17.346z"/></svg>